<?xml version="1.0" encoding="utf-8"?>
<!-- Svg Vector Icons : http://www.onlinewebfonts.com/icon -->
<!DOCTYPE svg PUBLIC "-//W3C//DTD SVG 1.1//EN" "http://www.w3.org/Graphics/SVG/1.1/DTD/svg11.dtd">
<svg version="1.1" xmlns="http://www.w3.org/2000/svg" xmlns:xlink="http://www.w3.org/1999/xlink" x="0px" y="0px" viewBox="0 0 1000 1000" enable-background="new 0 0 1000 1000" xml:space="preserve">
<metadata> Svg Vector Icons : http://www.onlinewebfonts.com/icon </metadata>
<g><path d="M10,500c0,55.6,45.1,100.8,100.8,100.8S211.5,555.6,211.5,500c0-55.6-45.1-100.8-100.8-100.8S10,444.4,10,500z"/><path d="M399.2,500c0,55.6,45.1,100.8,100.8,100.8S600.8,555.6,600.8,500c0-55.6-45.1-100.8-100.8-100.8S399.2,444.4,399.2,500L399.2,500z"/><path d="M788.5,500c0,55.6,45.1,100.8,100.8,100.8c55.6,0,100.8-45.1,100.8-100.8c0-55.6-45.1-100.8-100.8-100.8C833.6,399.2,788.5,444.4,788.5,500z"/></g>
</svg>